<svg xmlns="http://www.w3.org/2000/svg" viewBox="0 0 750 500"><g id="freepik--background-complete--inject-106"><path d="M132.93,431.89s0,.4.17,1.14a7,7,0,0,0,1.52,3c1.85,2.36,5.64,4.81,10.83,7.05,10.41,4.52,26.47,8.42,46.47,11.71,40,6.54,96.11,10.51,158,10.52s118-4,158-10.52c20-3.29,36-7.2,46.47-11.71,5.19-2.24,9-4.69,10.82-7.05a7,7,0,0,0,1.52-3c.16-.74.14-1.14.17-1.14s0,.1,0,.29a4.24,4.24,0,0,1-.1.87,7,7,0,0,1-1.5,3c-1.84,2.41-5.63,4.9-10.82,7.17-10.42,4.59-26.48,8.55-46.49,11.89-40.06,6.64-96.16,10.67-158.1,10.68s-118-4-158.08-10.68c-20-3.33-36.07-7.3-46.5-11.89-5.19-2.27-9-4.76-10.82-7.17a7,7,0,0,1-1.49-3,4.32,4.32,0,0,1-.11-.87C132.93,432,132.93,431.89,132.93,431.89Z" style="fill:#e0e0e0"></path><path d="M213.39,426s0,.27.12.77a4.76,4.76,0,0,0,1,2c1.25,1.58,3.8,3.23,7.3,4.74,7,3,17.87,5.66,31.37,7.87,27,4.4,64.87,7.07,106.65,7.08s79.64-2.68,106.67-7.08c13.5-2.21,24.33-4.84,31.36-7.88,3.5-1.5,6.06-3.15,7.3-4.74a4.9,4.9,0,0,0,1-2c.11-.5.09-.77.12-.77a3.52,3.52,0,0,1-.07.78,4.76,4.76,0,0,1-1,2.06c-1.24,1.63-3.81,3.32-7.31,4.86-7,3.11-17.88,5.79-31.38,8.05-27,4.5-64.91,7.23-106.73,7.24s-79.67-2.74-106.71-7.24c-13.51-2.26-24.35-4.94-31.39-8.05-3.5-1.54-6.06-3.23-7.3-4.86a4.68,4.68,0,0,1-1-2.06A3.06,3.06,0,0,1,213.39,426Z" style="fill:#e0e0e0"></path><path d="M182.23,94.59c-16.29,0-32.25-8.21-48.31-5.48a42.43,42.43,0,0,0-15,5.88,54,54,0,0,0-11.12-51.08c-5.43,12.88-10.89,25.94-13,39.75-5.24-4.42-11.8-7.64-18.3-10-11.47-4.11-23.79-6.5-34-13.2a44.9,44.9,0,0,0,20.86,36.9l2.29,1.93C56.58,98.75,47.42,102,39.75,107c-8.54,5.58-15.49,13.24-22.11,21a53,53,0,0,0,27.81,5.17c9.07-.8,17.89-3.94,27-3.89.94,0,1.88.06,2.81.13a25.33,25.33,0,0,0-4.51,3c-7.85,6.66-11.89,16.77-14.34,26.77s-3.61,20.36-7.15,30a73.61,73.61,0,0,0,47.93-35.79C96.06,205,96.46,308.1,114.52,370l16.69,1.92S103.15,239.59,108.73,154c4,7.61,8.34,15.28,15.11,20.51,7.27,5.61,18.2,7.61,25.55,2.11,2.19-1.64,4-4.17,3.78-6.9-.3-3.23-3.29-5.4-5.6-7.69-4.63-4.62-7.07-11-8.94-17.24s-3.31-12.76-6.46-18.49l0,0A91.46,91.46,0,0,0,182.23,94.59Z" style="fill:#f5f5f5"></path><path d="M616.62,379.89s34.26-166.2,18.1-248.29l13.9-5.31s9.59,165.19-15.09,251.56Z" style="fill:#f5f5f5"></path><path d="M707.86,110.6c-7.81-5-17.12-8.26-26.34-7.63l2.31-2a45.55,45.55,0,0,0,20.95-37.56C694.49,70.3,682,72.79,670.39,77c-6.58,2.4-13.21,5.7-18.51,10.22-2.17-14-7.8-27.22-13.37-40.26a54.75,54.75,0,0,0-11,51.9A43.06,43.06,0,0,0,612.21,93c-16.31-2.68-32.46,5.79-49,5.83a92.75,92.75,0,0,0,51,31.9v0c-3.17,5.84-4.6,12.42-6.46,18.8s-4.29,12.83-9,17.54c-2.33,2.34-5.35,4.56-5.64,7.84-.25,2.77,1.65,5.32,3.88,7,7.49,5.54,18.57,3.45,25.91-2.28s11.81-14.3,16.08-22.57c1.85-3.59,3.75-7.23,5.9-10.67a49.92,49.92,0,0,0,4.43,10.79,74.69,74.69,0,0,0,49.35,36.93c-3.65-9.79-4.89-20.28-7.43-30.42s-6.69-20.37-14.7-27.08a26.14,26.14,0,0,0-4.6-3.07c.95-.08,1.9-.13,2.85-.14,9.24-.11,18.21,3,27.41,3.78a53.75,53.75,0,0,0,28.19-5.4C723.66,123.94,716.56,116.21,707.86,110.6Z" style="fill:#f5f5f5"></path><path d="M256.82,123c.54-4-5-7.2-9.23-7.54-2-.16-4.08.14-6-.52-4.11-1.43-5.75-6.73-9.75-8.42-3-1.26-6.45-.14-9.35,1.32s-5.77,3.3-9,3.51c-2.82.18-5.89-.87-8.36.51-1.84,1-2.8,3.15-4.49,4.4a10.76,10.76,0,0,1-5.88,1.59,16.75,16.75,0,0,0-6.07,1c-1.87.86-3.42,2.84-3,4.87Z" style="fill:#ebebeb"></path><path d="M600.58,61.44c.39-2.86-3.64-5.21-6.68-5.46-1.44-.12-2.94.11-4.31-.37-3-1-4.16-4.87-7.06-6.09-2.16-.92-4.66-.1-6.75.95s-4.18,2.39-6.53,2.54c-2,.13-4.25-.63-6,.37-1.33.74-2,2.28-3.25,3.18a7.78,7.78,0,0,1-4.25,1.15,12,12,0,0,0-4.39.72A3.47,3.47,0,0,0,549.13,62Z" style="fill:#f5f5f5"></path><path d="M407.41,55c.4-2.86-3.64-5.22-6.67-5.46-1.45-.12-2.95.1-4.32-.37-3-1-4.16-4.87-7.06-6.1-2.16-.91-4.65-.1-6.75,1s-4.18,2.39-6.52,2.54c-2,.13-4.26-.63-6,.37-1.33.74-2,2.27-3.25,3.18a7.78,7.78,0,0,1-4.25,1.15,12,12,0,0,0-4.39.72A3.46,3.46,0,0,0,356,55.53Z" style="fill:#f5f5f5"></path><path d="M326.85,204.51c.39-2.86-3.64-5.21-6.68-5.46-1.44-.11-2.94.11-4.31-.37-3-1-4.16-4.87-7.06-6.09-2.16-.91-4.66-.1-6.76,1s-4.17,2.38-6.52,2.53c-2,.13-4.25-.62-6,.37-1.33.75-2,2.28-3.25,3.18a7.79,7.79,0,0,1-4.25,1.16,12,12,0,0,0-4.39.71A3.48,3.48,0,0,0,275.4,205Z" style="fill:#f5f5f5"></path><path d="M213,55c.39-2.86-3.64-5.22-6.68-5.46-1.44-.12-3,.1-4.32-.37-3-1-4.15-4.87-7-6.1-2.16-.91-4.66-.1-6.76,1s-4.17,2.39-6.52,2.54c-2,.13-4.25-.63-6,.37-1.33.74-2,2.27-3.25,3.18a7.8,7.8,0,0,1-4.25,1.15,12,12,0,0,0-4.39.72,3.46,3.46,0,0,0-2.19,3.51Z" style="fill:#f5f5f5"></path><path d="M530.61,135c.75-5.44-6.93-9.92-12.7-10.38-2.75-.22-5.61.2-8.22-.71-5.65-2-7.9-9.27-13.42-11.59-4.12-1.74-8.86-.19-12.85,1.82s-7.95,4.54-12.41,4.82c-3.88.25-8.1-1.19-11.49.71-2.53,1.41-3.86,4.33-6.19,6s-5.26,2-8.09,2.19-5.77.19-8.34,1.37-4.72,3.9-4.18,6.69Z" style="fill:#ebebeb"></path></g><g id="freepik--Pongal--inject-106"><path d="M366.12,152.38H354.75C353.46,253.07,333.17,351.56,265.87,412h36.41S387.94,326.14,366.12,152.38Z" style="fill:#455a64"></path><path d="M364,152.38h11.37c1.29,100.69,25.2,199.26,92.5,259.69H431.45S342.17,326.14,364,152.38Z" style="fill:#455a64"></path><path d="M355.38,125.73c-3.67-8.42-9.57-16.2-17.77-20.36-3.47-1.77-7.52-2.85-11.28-1.83-4.56,1.23-7.78,5.22-10.43,9.13a124.43,124.43,0,0,0-13.14,25.09c7.71-6.71,12.18-16.82,20.72-22.42a13.58,13.58,0,0,1,8.09-2.59c4,.25,7.37,3.07,9.95,6.14,8.14,9.69,11.23,22.53,14.07,34.86l6.8-1.42C360.74,143.29,359.05,134.16,355.38,125.73Z" style="fill:#455a64"></path><path d="M348.52,138.53c-3.66-3.61-8.14-6.88-13.28-6.88-6.63,0-12.34,4.87-16,10.41s-5.87,11.9-9.47,17.47c4.32-1.88,7.08-6.09,9.92-9.85s6.51-7.55,11.22-7.87c2.91-.2,5.72,1,8.35,2.23a110.74,110.74,0,0,1,18.46,11.17l2.78-3.81C357.75,147.33,352.05,142,348.52,138.53Z" style="fill:#455a64"></path><path d="M356.13,60c-6.67,20.29-.83,68.79,4.76,96.89h7C367.67,124.79,363.22,91.33,356.13,60Z" style="fill:#455a64"></path><path d="M372,128.93c3.68-8.42,9.58-16.2,17.77-20.36,3.48-1.77,7.52-2.85,11.29-1.83,4.56,1.23,7.77,5.22,10.42,9.13A124.2,124.2,0,0,1,424.58,141c-7.72-6.71-12.18-16.83-20.73-22.43a13.63,13.63,0,0,0-8.09-2.59c-4,.26-7.37,3.08-9.94,6.15-8.15,9.69-11.24,22.53-14.08,34.86l-6.8-1.42C366.6,146.49,368.28,137.36,372,128.93Z" style="fill:#455a64"></path><path d="M380.65,142.06c2.84-2.81,6.31-5.35,10.31-5.35,5.14,0,9.58,3.78,12.41,8.08s4.56,9.24,7.35,13.57c-3.36-1.46-5.5-4.73-7.7-7.65s-5.06-5.86-8.71-6.11c-2.26-.16-4.44.76-6.48,1.73A86.43,86.43,0,0,0,373.49,155l-2.15-2.95C373.48,148.89,377.91,144.76,380.65,142.06Z" style="fill:#455a64"></path><path d="M379.76,75.89c4,19.3-6.54,63.13-14.64,88.29l-6.39-.73C362.31,134,369.94,103.85,379.76,75.89Z" style="fill:#455a64"></path><path d="M358.89,126.6c-4.6-10.87-9.45-22.1-18.24-30-9.32-8.36-22.08-12-31.59-20.16a53.08,53.08,0,0,0,16.53,18.76c4,2.81,8.43,5,12.25,8.13,10.88,8.77,15.7,23.18,25.76,32.88" style="fill:#455a64"></path><path d="M367.21,154.38a.9.9,0,0,1,0,.26c0,.21,0,.46,0,.77,0,.72.06,1.71.1,3,.07,2.62.16,6.32.27,10.89.2,9.19.42,21.89.36,35.92s-.45,26.74-.88,35.93c-.22,4.59-.42,8.3-.6,10.87-.08,1.25-.15,2.24-.2,3,0,.31-.05.57-.07.77a.7.7,0,0,1,0,.26,1,1,0,0,1,0-.26c0-.21,0-.46,0-.77,0-.72.06-1.71.1-3,.1-2.61.25-6.32.43-10.88.34-9.19.67-21.88.73-35.91s-.11-26.72-.2-35.92c-.05-4.56-.09-8.27-.11-10.88,0-1.26,0-2.25,0-3,0-.32,0-.57,0-.77A.8.8,0,0,1,367.21,154.38Z" style="fill:#263238"></path><path d="M367.28,188.19a6,6,0,0,1-1.9.31,22.51,22.51,0,0,1-9.16-1.27,5.63,5.63,0,0,1-1.74-.82c0-.15,2.78.93,6.33,1.41S367.27,188,367.28,188.19Z" style="fill:#263238"></path><path d="M323.16,382.87a4.13,4.13,0,0,1-1,.19,23.35,23.35,0,0,1-2.77.2,32.05,32.05,0,0,1-9.07-1.19,31.6,31.6,0,0,1-8.35-3.74,23.07,23.07,0,0,1-2.25-1.61A3.72,3.72,0,0,1,299,376c0-.08,1.2.81,3.2,2a35.92,35.92,0,0,0,8.3,3.55,36.36,36.36,0,0,0,8.92,1.32C321.71,382.93,323.15,382.77,323.16,382.87Z" style="fill:#263238"></path><path d="M433.42,370.5a3.34,3.34,0,0,1-.57.81,23,23,0,0,1-1.78,2,34.45,34.45,0,0,1-15.16,9.08,24.73,24.73,0,0,1-2.63.62,3.2,3.2,0,0,1-1,.11c0-.09,1.36-.38,3.51-1.08a39.36,39.36,0,0,0,15-9C432.44,371.52,433.35,370.44,433.42,370.5Z" style="fill:#263238"></path><path d="M382.5,238.43a7.44,7.44,0,0,1-1.77,1.85,17.17,17.17,0,0,1-5.4,3,17.4,17.4,0,0,1-6.12.92,7.91,7.91,0,0,1-2.53-.38c0-.09,1,0,2.53,0A19.39,19.39,0,0,0,380.5,240C381.75,239.07,382.43,238.37,382.5,238.43Z" style="fill:#263238"></path><path d="M375.08,183.21a5.94,5.94,0,0,1-3.5,1.93,5.76,5.76,0,0,1-4-.26,22.05,22.05,0,0,0,3.88-.24A22.48,22.48,0,0,0,375.08,183.21Z" style="fill:#263238"></path><path d="M362.71,153c-.12.09-1.95-2.37-4.54-5.12s-4.91-4.73-4.82-4.85a6.4,6.4,0,0,1,1.66,1.16,38.52,38.52,0,0,1,3.54,3.34,36.2,36.2,0,0,1,3.11,3.75A6.71,6.71,0,0,1,362.71,153Z" style="fill:#263238"></path><path d="M366.87,153.86a4.17,4.17,0,0,1,.23-.77l.75-2.19c.61-1.92,1.47-4.7,2.4-8.18,1.89-6.94,4.18-16.62,6.3-27.4,1.08-5.51,2-10.78,2.68-15.56a99.32,99.32,0,0,0,1.21-12.68h0c-.23-3.43-.41-6.22-.54-8.2-.06-.93-.1-1.67-.13-2.22a6.62,6.62,0,0,1,0-.78,3.79,3.79,0,0,1,.11.77c.06.55.13,1.29.22,2.22.18,2,.42,4.76.72,8.19h0a94.42,94.42,0,0,1-1.11,12.74c-.67,4.8-1.56,10.08-2.64,15.6-2.12,10.79-4.47,20.47-6.45,27.4-1,3.47-1.9,6.24-2.57,8.14-.35.95-.65,1.67-.84,2.17A4.9,4.9,0,0,1,366.87,153.86Z" style="fill:#263238"></path><path d="M371.34,100.47a1.85,1.85,0,0,1-.1.49c-.1.37-.22.82-.37,1.36-.33,1.19-.78,2.91-1.29,5-1,4.28-2.22,10.23-3.24,16.86a143.35,143.35,0,0,0-1.67,17.07c-.05,2.19,0,4,.09,5.19,0,.56.08,1,.11,1.41a2.75,2.75,0,0,1,0,.5,1.6,1.6,0,0,1-.11-.49c-.06-.38-.13-.84-.22-1.4a50.54,50.54,0,0,1-.25-5.22,122.75,122.75,0,0,1,1.53-17.14,171.79,171.79,0,0,1,3.4-16.86c.55-2.14,1.06-3.85,1.44-5,.19-.53.35-1,.47-1.34A1.78,1.78,0,0,1,371.34,100.47Z" style="fill:#263238"></path><path d="M364.61,140.1a9.79,9.79,0,0,1-.67-1.45c-.39-1-1-2.3-1.77-4a76.61,76.61,0,0,0-16.72-22.95c-1.33-1.25-2.44-2.24-3.22-2.9a9.68,9.68,0,0,1-1.18-1.08,8.48,8.48,0,0,1,1.31.92c.82.62,2,1.56,3.34,2.79a69.39,69.39,0,0,1,16.8,23.06c.75,1.68,1.3,3.07,1.63,4A10.2,10.2,0,0,1,364.61,140.1Z" style="fill:#263238"></path><path d="M366.09,264.62a8.61,8.61,0,0,1-2.47.14A31,31,0,0,1,352,262.13a9.34,9.34,0,0,1-2.18-1.19,16.45,16.45,0,0,1,2.32.85,42.71,42.71,0,0,0,5.67,1.71,43.52,43.52,0,0,0,5.85.89A17.45,17.45,0,0,1,366.09,264.62Z" style="fill:#263238"></path><path d="M391.43,295.11v-7.93A17.47,17.47,0,0,0,399,272.44H338.12a17.47,17.47,0,0,0,7.52,14.74v7.93s-28.46,15.13-25.22,44.31,26.77,40.75,50.28,39c19.94-1,43.11-13.51,45.95-39C419.89,310.24,391.43,295.11,391.43,295.11Z" style="fill:#EE7E0C"></path><path d="M399.32,272.84a4,4,0,0,1-.55.35l-1.62.93-1.17.66c-.44.23-.93.44-1.45.69-1,.47-2.22,1.08-3.59,1.55l-2.13.81c-.75.27-1.55.48-2.36.74-1.62.54-3.41.9-5.28,1.33a61,61,0,0,1-24.82-.17c-1.87-.46-3.65-.85-5.27-1.41-.81-.27-1.6-.48-2.34-.77l-2.12-.83c-1.37-.5-2.53-1.12-3.57-1.61-.52-.25-1-.47-1.44-.71l-1.17-.67-1.6-1a2.61,2.61,0,0,1-.54-.37,4,4,0,0,1,.59.28l1.65.86,1.18.63c.44.22.93.43,1.45.67,1.05.46,2.22,1.06,3.58,1.53l2.12.8c.74.27,1.53.47,2.34.73,1.61.54,3.38.91,5.24,1.35a62.46,62.46,0,0,0,24.62.17c1.86-.41,3.64-.76,5.26-1.28.81-.24,1.61-.44,2.35-.7l2.13-.77c1.37-.45,2.54-1,3.59-1.48.53-.23,1-.43,1.47-.64l1.19-.62,1.66-.84A2.41,2.41,0,0,1,399.32,272.84Z" style="fill:#263238"></path><path d="M397.46,273.88c.82-2.6-2-6.6-4.66-7.16s-5.45.76-7.29,2.77a7.41,7.41,0,0,0-12.6-3.81,16.8,16.8,0,0,0-7.93-9.33,13,13,0,0,0-12.05,0,10.64,10.64,0,0,0-5.37,10.49,5.38,5.38,0,0,0-8,5.87,62,62,0,0,0,27.33,7.66A70.45,70.45,0,0,0,397.46,273.88Z" style="fill:#e0e0e0"></path><path d="M405.53,306.91a5,5,0,0,1-.72.28l-2.1.73c-.91.32-2,.69-3.34,1.05s-2.81.84-4.49,1.22-3.5.86-5.5,1.22-4.12.74-6.37,1.08a123.08,123.08,0,0,1-14.77,1.11,129,129,0,0,1-14.8-.77c-2.26-.29-4.41-.55-6.4-.93s-3.84-.7-5.53-1.07-3.19-.76-4.52-1.08-2.45-.66-3.37-.95l-2.12-.65a4.42,4.42,0,0,1-.73-.27,4.89,4.89,0,0,1,.76.17l2.14.56c.93.25,2.06.56,3.4.85s2.83.71,4.52,1,3.52.72,5.52,1,4.13.59,6.39.87a132.84,132.84,0,0,0,14.73.73A131.31,131.31,0,0,0,382.94,312c2.25-.33,4.39-.62,6.36-1s3.82-.77,5.5-1.16,3.17-.8,4.49-1.14,2.44-.68,3.36-1l2.12-.64A4.43,4.43,0,0,1,405.53,306.91Z" style="fill:#263238"></path><path d="M375.93,312.74a3.78,3.78,0,0,1,0,.77c0,.55-.07,1.28-.11,2.19-.12,1.91-.3,4.67-.76,8.07a43.64,43.64,0,0,1-3,11.64,41.44,41.44,0,0,1-3.37,6.29,29.45,29.45,0,0,1-4.92,5.88l-.18.17-.17-.17-.23-.23a34.46,34.46,0,0,1-4.87-6,39,39,0,0,1-3.35-6.36,48.31,48.31,0,0,1-3.26-11.69,49.53,49.53,0,0,1-.58-8.16c0-1,.07-1.72.09-2.22a3.73,3.73,0,0,1,.08-.78,4,4,0,0,1,0,.78c0,.51,0,1.26,0,2.22a53.86,53.86,0,0,0,.75,8.1,49.4,49.4,0,0,0,3.33,11.56,39.72,39.72,0,0,0,3.34,6.27,33.54,33.54,0,0,0,4.81,5.89l.22.23h-.35a30.21,30.21,0,0,0,4.84-5.77,42.3,42.3,0,0,0,3.35-6.2,44.77,44.77,0,0,0,3.11-11.5c.5-3.38.74-6.13.92-8q.12-1.37.21-2.19A5.83,5.83,0,0,1,375.93,312.74Z" style="fill:#263238"></path><path d="M400.16,308.61a6.25,6.25,0,0,1,.1.78c.06.56.13,1.31.22,2.24.17,1.95.42,4.77.53,8.27A39.33,39.33,0,0,1,397.44,339a30.16,30.16,0,0,1-4.08,6.69l-.13.16-.15.19-.2-.15a37.66,37.66,0,0,1-10-11.11,50.79,50.79,0,0,1-6.67-19.26c-.15-1-.17-1.72-.22-2.23a6.48,6.48,0,0,1,0-.78,3.71,3.71,0,0,1,.14.77c.09.51.14,1.26.32,2.21a55.07,55.07,0,0,0,1.89,8,49.58,49.58,0,0,0,5,11.06,37.83,37.83,0,0,0,9.92,10.94l-.35,0,.12-.16a29.71,29.71,0,0,0,4-6.56,40.76,40.76,0,0,0,2.44-6.78,42.77,42.77,0,0,0,1.24-12.11c-.07-3.49-.27-6.31-.37-8.26l-.12-2.25A4,4,0,0,1,400.16,308.61Z" style="fill:#263238"></path><path d="M351.31,312.43a3.67,3.67,0,0,1-.11.73l-.43,2.07c-.38,1.8-.93,4.41-1.8,7.6a39,39,0,0,1-4.43,10.72,39.47,39.47,0,0,1-4.12,5.51,28,28,0,0,1-5.57,4.88l-.21.14-.14-.2-.27-.39a27.22,27.22,0,0,1-3.56-6.58,34.25,34.25,0,0,1-1.84-6.72,43.27,43.27,0,0,1-.39-11.75,45.47,45.47,0,0,1,1.43-7.8c.23-.9.49-1.58.64-2.05a7,7,0,0,1,.26-.71,3.91,3.91,0,0,1-.16.74c-.11.48-.34,1.16-.54,2.08a49.53,49.53,0,0,0-1.26,7.77,44.42,44.42,0,0,0,.49,11.63,33.72,33.72,0,0,0,1.85,6.62,26.76,26.76,0,0,0,3.5,6.46l.27.39-.35-.06a27.82,27.82,0,0,0,5.47-4.79,39.32,39.32,0,0,0,4.09-5.42,39.86,39.86,0,0,0,4.49-10.57c.91-3.16,1.51-5.76,2-7.54.21-.85.38-1.54.51-2.05A3.77,3.77,0,0,1,351.31,312.43Z" style="fill:#263238"></path><path d="M416,343.41l-.23.07-.71.17-2.71.62c-1.18.26-2.62.57-4.31.88s-3.6.71-5.74,1-4.47.74-7,1.06-5.21.64-8.05,1c-5.69.54-12,1-18.56,1.1s-12.88-.11-18.58-.47c-2.85-.23-5.56-.42-8.09-.72s-4.87-.56-7-.86-4.07-.63-5.76-.91-3.15-.55-4.33-.8l-2.72-.56-.71-.16c-.15,0-.24-.07-.23-.08l.24,0,.72.11,2.74.47c1.19.22,2.64.47,4.34.71s3.62.59,5.76.83,4.48.58,7,.8,5.22.46,8.07.67c5.69.34,12,.53,18.54.43s12.84-.54,18.52-1.06c2.84-.3,5.53-.56,8-.91s4.85-.66,7-1,4.05-.68,5.74-1,3.14-.57,4.33-.8l2.73-.52.71-.12A1,1,0,0,1,416,343.41Z" style="fill:#263238"></path><path d="M414.43,349.08a.62.62,0,0,1-.23.08l-.68.16-2.63.6c-1.14.26-2.54.56-4.17.86s-3.49.7-5.56,1-4.33.72-6.77,1-5.06.63-7.81.92c-5.51.52-11.59.9-18,1s-12.48-.22-18-.64c-2.76-.24-5.38-.46-7.83-.78s-4.71-.6-6.79-.9-3.93-.65-5.57-.92-3-.56-4.19-.8l-2.64-.55-.68-.16-.23-.07.24,0,.69.1,2.66.46c1.15.21,2.56.47,4.2.71s3.5.59,5.58.84,4.34.6,6.78.84,5.06.51,7.81.73c5.52.4,11.59.65,18,.6s12.44-.44,17.94-.93c2.75-.28,5.37-.53,7.8-.87s4.7-.65,6.77-1,3.93-.66,5.56-.93,3-.55,4.19-.78l2.65-.5.69-.12Z" style="fill:#263238"></path><path d="M391.43,295.18c0,.14-10.27.26-22.95.26s-22.94-.12-22.94-.26,10.27-.26,22.94-.26S391.43,295,391.43,295.18Z" style="fill:#263238"></path><path d="M391.57,287.3c0,.15-10.26.26-22.9.26s-22.91-.11-22.91-.26S356,287,368.67,287,391.57,287.16,391.57,287.3Z" style="fill:#263238"></path><rect x="330.97" y="379.72" width="75.13" height="7.66" style="fill:#263238"></rect><polygon points="341.63 386.3 333.1 411.99 337.37 411.99 349.29 386.3 341.63 386.3" style="fill:#263238"></polygon><polygon points="365.49 386.3 366.4 412.06 370.67 412.06 373.14 386.3 365.49 386.3" style="fill:#263238"></polygon><polygon points="397.57 386.3 406.1 411.99 401.83 411.99 389.91 386.3 397.57 386.3" style="fill:#263238"></polygon><path d="M406.32,387.37c0,.15-16.92.26-37.78.26s-37.79-.11-37.79-.26,16.91-.26,37.79-.26S406.32,387.23,406.32,387.37Z" style="fill:#455a64"></path></g><g id="freepik--Floor--inject-106"><path d="M723.7,412.07c0,.14-156.13.26-348.68.26s-348.72-.12-348.72-.26,156.1-.26,348.72-.26S723.7,411.92,723.7,412.07Z" style="fill:#263238"></path></g><g id="freepik--Plants--inject-106"><path d="M55.4,288.92c-.64-.58-9.33-23.8-9.09-25.82s1.45-28.85,1.45-28.85l7.08,37.54Z" style="fill:#EE7E0C"></path><path d="M59.42,310.3s-.15-10.52,1.4-12.13S82.31,272,82.31,272l11.87-5.64-9.33,8Z" style="fill:#EE7E0C"></path><polygon points="43.16 289.46 59.9 328.3 63.48 330.85 61.81 319.97 43.16 289.46" style="fill:#EE7E0C"></polygon><polygon points="38.06 327.21 59.16 351.95 68.35 353.36 58.44 342.06 38.06 327.21" style="fill:#EE7E0C"></polygon><polygon points="86.02 332.17 78.89 363.89 71.42 369.43 74.92 354.81 86.02 332.17" style="fill:#EE7E0C"></polygon><polygon points="57.88 370.95 69.11 386.62 75.08 386.34 74.1 382.36 57.88 370.95" style="fill:#EE7E0C"></polygon><path d="M76.85,395.69c-.18,0-5.42-25.05-11.72-56S53.88,283.54,54.06,283.5s5.41,25.05,11.71,56S77,395.66,76.85,395.69Z" style="fill:#263238"></path><path d="M688.65,311.52c0-.82,2.77-54.86,2.77-54.86l4.23,24.45Z" style="fill:#EE7E0C"></path><g style="opacity:0.30000000000000004"><path d="M688.65,311.52c0-.82,2.77-54.86,2.77-54.86l4.23,24.45Z"></path></g><path d="M685.89,372.13c.21-.62,4.73-10.48,4.73-10.48l19.93-25.27-12.33,27.74Z" style="fill:#EE7E0C"></path><polygon points="685.36 385.49 680.24 373.36 681.25 355.9 685.36 378.29 685.36 385.49" style="fill:#EE7E0C"></polygon><path d="M684.07,412.94c-.12,0,.87-24.1,2.22-53.81s2.54-53.81,2.66-53.8-.87,24.09-2.22,53.82S684.19,412.94,684.07,412.94Z" style="fill:#263238"></path><path d="M678.71,283.57c-.42-.62-1.65-20.75-1-22.4s7.19-23.83,7.19-23.83L683,270.21Z" style="fill:#EE7E0C"></path><path d="M677.92,307.86S680,299,681.6,298,705,280.54,705,280.54l11.09-2.26L706.65,283Z" style="fill:#EE7E0C"></path><polygon points="668.64 280.28 674.6 316.24 677.06 319.12 677.92 309.66 668.64 280.28" style="fill:#EE7E0C"></polygon><polygon points="656.73 311.52 669.27 336.58 676.66 339.67 670.71 328.16 656.73 311.52" style="fill:#EE7E0C"></polygon><path d="M676.14,354.25c.41-.61,7.4-18.28,7.4-18.28l18.28-12.74h7.81l-5.55,1.33Z" style="fill:#EE7E0C"></path><polygon points="663.61 355.9 669.77 371.33 674.82 372.33 674.82 368.8 663.61 355.9" style="fill:#EE7E0C"></polygon><path d="M673.29,413.72c-.12,0,1.05-30.26,2.63-67.56s3-67.55,3.07-67.54-1.06,30.25-2.63,67.56S673.41,413.72,673.29,413.72Z" style="fill:#263238"></path><g style="opacity:0.30000000000000004"><polygon points="685.36 385.49 680.24 373.36 681.25 355.9 685.36 378.29 685.36 385.49"></polygon></g></g><g id="freepik--character-2--inject-106"><path d="M570.3,247.72c-.11-4.65-.27-9.5-2.53-13.57-1.56-2.82-4.09-5.16-4.87-8.29-1.44-5.71,3.43-11.11,3.86-17,.38-5.21-2.74-9.94-4.41-14.89-1.83-5.43-1.92-11.29-3.25-16.86s-6.88-22.38-24.21-21.81L505.64,172.1c-5.15,10,.07,22.65-3.84,33.2-1.45,3.9-4.14,7.53-4.11,11.69,0,4.51,3.3,8.44,3.73,12.93.3,3.13-.79,6.2-1.73,9.2A103.75,103.75,0,0,0,495,265.56c-.09,1.93,0,4.18,1.59,5.31a6,6,0,0,0,3.8.69,187.74,187.74,0,0,0,64.11-14.48c1.74-.73,3.56-1.56,4.64-3.12C570.36,252.19,570.36,249.88,570.3,247.72Z" style="fill:#263238"></path><path d="M558.39,184.44c-.9-10.08-6.23-19.89-14.77-25.33s-20.22-6-28.77-.56a30.07,30.07,0,0,0-11.59,15c-2.24,6-1.27,11-1.22,17.47,0,3.34.46,12.3,3.33,14l44.92,8.06C556,204.75,559.3,194.52,558.39,184.44Z" style="fill:#263238"></path><path d="M556.81,176.71c-1-6-6.86-11.82-11.42-15.83-5.21-4.59-5.94-4.38-12.88-4.56-7.31-.18-15.3-.15-21,4.43-3.16,2.53-5.21,6.19-6.86,9.89-3.81,8.56-3.22,18.33-2.06,27.62s3.14,18.07,10.74,23.54l32-5c7.05-2.61,9.4-10.67,11.4-17.92S558.06,184.13,556.81,176.71Z" style="fill:#263238"></path><path d="M503.68,182.67c.45-8.79,9.81-17.68,18.58-16.86l28.46,5.06,0,4.73,1.12,64.61c-11.27,1.23-23.81,2.28-34.1.06L518,228s-11.24-1.73-13.75-16.35C503,204.39,503.18,192.44,503.68,182.67Z" style="fill:#c78976"></path><path d="M507.9,194.31a1.88,1.88,0,0,0,1.83,1.88,1.81,1.81,0,0,0,1.92-1.72,1.89,1.89,0,0,0-1.84-1.88A1.8,1.8,0,0,0,507.9,194.31Z" style="fill:#263238"></path><path d="M506.85,188.86c.24.24,1.65-.83,3.67-.85s3.51,1,3.73.73-.14-.55-.79-1a5.16,5.16,0,0,0-3-.88,4.92,4.92,0,0,0-2.91,1C506.94,188.31,506.73,188.75,506.85,188.86Z" style="fill:#263238"></path><path d="M526.11,194.31a1.89,1.89,0,0,0,1.84,1.88,1.8,1.8,0,0,0,1.91-1.72,1.89,1.89,0,0,0-1.83-1.88A1.81,1.81,0,0,0,526.11,194.31Z" style="fill:#263238"></path><path d="M526.72,189c.24.24,1.65-.83,3.67-.85s3.52,1,3.73.72-.13-.55-.78-1a5.2,5.2,0,0,0-3-.88,5,5,0,0,0-2.92,1C526.82,188.44,526.61,188.89,526.72,189Z" style="fill:#263238"></path><path d="M519.57,204.08a13.05,13.05,0,0,0-3.29-.56c-.52,0-1-.14-1.1-.49a2.66,2.66,0,0,1,.33-1.54c.47-1.25,1-2.57,1.48-3.94,2-5.63,3.53-10.25,3.3-10.33s-2.07,4.41-4.13,10l-1.41,4a2.93,2.93,0,0,0-.24,2,1.3,1.3,0,0,0,.85.74,3.35,3.35,0,0,0,.88.11A13.42,13.42,0,0,0,519.57,204.08Z" style="fill:#263238"></path><path d="M518,228.05a38.76,38.76,0,0,0,20-5.51s-4.82,10.32-20,9.16Z" style="fill:#935648"></path><path d="M519.79,208.39a4.19,4.19,0,0,1,3.7-1.59,3.82,3.82,0,0,1,2.64,1.38,2.38,2.38,0,0,1,.21,2.74,2.78,2.78,0,0,1-3,.8,8.67,8.67,0,0,1-3-1.72,2.67,2.67,0,0,1-.67-.67.79.79,0,0,1,0-.86" style="fill:#935648"></path><path d="M525.54,205.4c-.33,0-.31,2.18-2.17,3.76s-4.2,1.37-4.21,1.68c0,.13.52.41,1.51.43a5.51,5.51,0,0,0,3.52-1.27,4.75,4.75,0,0,0,1.67-3.15C525.94,205.93,525.68,205.39,525.54,205.4Z" style="fill:#263238"></path><path d="M526.2,183.29c.21.55,2.22.27,4.6.52s4.3.88,4.61.39c.14-.24-.2-.75-1-1.28a7.77,7.77,0,0,0-3.43-1.15,7.57,7.57,0,0,0-3.59.47C526.55,182.6,526.11,183,526.2,183.29Z" style="fill:#263238"></path><path d="M506.83,181.93c.36.45,1.75,0,3.42-.09s3.1.28,3.42-.21c.14-.23-.09-.69-.72-1.12a4.94,4.94,0,0,0-5.51.24C506.86,181.23,506.67,181.7,506.83,181.93Z" style="fill:#263238"></path><path d="M547.33,201.49a4.37,4.37,0,0,1,6.48-3.58c1.5.91,2.62,2.69,2.41,6.08-.57,9-9.5,6.59-9.5,6.33S547.07,205.22,547.33,201.49Z" style="fill:#c78976"></path><path d="M549.67,207.07s.15.12.41.26a1.62,1.62,0,0,0,1.17.1c1-.29,1.88-1.75,2-3.37a5.14,5.14,0,0,0-.29-2.28,1.82,1.82,0,0,0-1.1-1.28.79.79,0,0,0-.95.37c-.14.24-.1.43-.14.44s-.19-.17-.09-.53a1,1,0,0,1,.39-.54,1.2,1.2,0,0,1,.89-.18,2.22,2.22,0,0,1,1.54,1.51,5.32,5.32,0,0,1,.38,2.55c-.18,1.81-1.22,3.45-2.55,3.74a1.66,1.66,0,0,1-1.42-.33C549.67,207.29,549.64,207.08,549.67,207.07Z" style="fill:#935648"></path><path d="M555.65,176.05A26.83,26.83,0,0,0,534,157.11l-.79,1.4c-6.32-1.58-14.29-.43-19.68,3.22s-9.13,9.67-10.94,16.27l.89,5.41c1.26-2.62,1.42-5.43,4-8.12a18.65,18.65,0,0,1,8.36-4.38,41.44,41.44,0,0,0,4.9-1.54,19,19,0,0,0,6.72,8c2.47,1.64,5.38,2.74,7.34,5,2.48,2.8,3,6.76,3.79,10.4.78,3.43,2.35,7.14,5.48,8.59,0,0,0,.09,0,.1,3.19,1,6.12-5.55,9-3.84l3-6.59A35,35,0,0,0,555.65,176.05Z" style="fill:#263238"></path><path d="M554.93,222a93.26,93.26,0,0,0-3.53-12,78.4,78.4,0,0,0-2.31,12.13,8.24,8.24,0,0,0,.53,4.38,3.27,3.27,0,0,0,3.66,1.88,3.32,3.32,0,0,0,2.05-2.77A9.61,9.61,0,0,0,554.93,222Z" style="fill:#e0e0e0"></path><path d="M539.3,248a4.64,4.64,0,0,1-1,.22,20.44,20.44,0,0,1-2.86.28,31.13,31.13,0,0,1-18-4.91,21.33,21.33,0,0,1-2.31-1.69,3.92,3.92,0,0,1-.77-.71c.06-.08,1.22.86,3.28,2.09a35.19,35.19,0,0,0,8.58,3.65,34.78,34.78,0,0,0,9.24,1.2C537.8,248.14,539.28,247.92,539.3,248Z" style="fill:#fff"></path><path d="M501.41,331s-25.28,34.83-25.84,36.51c0,0-16.52,15.4-17.64,25.76V398S434.41,411.43,433,412.27s13.72,3.08,10.92,17.36l-11,9s4,11.48,16.34,12,44-12.88,54.32-4.76,17.65,10.64,37.25,14,31.64-4.48,48.17-7,30.24,7,42.56,7.83,36.41.57,47.33-7.83,22.4-25.48,31.08-24.36a28.06,28.06,0,0,0,16-3.08L652,367.74l-41.16-22.12-23.53-2.8-19-21.57Z" style="fill:#455a64"></path><path d="M475.57,367.46s35.36-5.16,53.79-16.54,37.15-29.67,37.15-29.67l-63.45,7.92Z" style="fill:#EE7E0C"></path><path d="M566.9,315.34a1.24,1.24,0,0,1-.18.2l-.53.54c-.52.49-1.22,1.17-2.11,2s-2.13,1.86-3.49,3-3,2.42-4.78,3.84a229.78,229.78,0,0,1-29.89,19.08,208.23,208.23,0,0,1-32.45,14.33,114.22,114.22,0,0,1-14.17,3.87s.08,0,.24-.09l.73-.21,2.82-.76,2-.53c.75-.21,1.54-.48,2.4-.74,1.71-.56,3.7-1.09,5.82-1.89a220.87,220.87,0,0,0,32.32-14.43,246,246,0,0,0,29.92-18.92c1.78-1.4,3.43-2.62,4.82-3.77s2.59-2.13,3.53-3,1.65-1.48,2.17-2l.58-.5A1.24,1.24,0,0,1,566.9,315.34Z" style="fill:#fff"></path><path d="M497.11,318l2.62-51.19-18.8-3.91c-2.8,17.64-8.25,56.2-7.69,59.28s30.35,48,30.35,48l13.16-5.32Z" style="fill:#c78976"></path><path d="M504.46,240.67s48.8-1.53,50.41-1.26,16.46,2.6,20.49,8.09,6.12,28.31,6.12,28.31l-88.49,6,0-32.71Z" style="fill:#c78976"></path><path d="M496.5,292.31l-23.3-3.16s6.12-28.73,9.92-35.91c2.67-5,12.71-9.47,18.41-11.65a21.81,21.81,0,0,1,7.83-1.44h8a28.16,28.16,0,0,0,33.93.44l.84-1.21s17.52-.21,24.08,6.82l18.9,46.11-32.33,19.44Z" style="fill:#455a64"></path><path d="M559.26,239.81S498.53,266.37,496,279c0,0-.36,17.35,2.9,26.32l4.66,26.81,64.09-10.74.6-12.71s28.57-27.44,34.17-44.24C587.46,252.18,575.6,239.38,559.26,239.81Z" style="fill:#EE7E0C"></path><path d="M515.62,320.41a4.53,4.53,0,0,1-.83-.56c-.52-.39-1.25-1-2.13-1.72-1.76-1.48-4.12-3.63-6.58-6.16s-4.54-4.94-6-6.74c-.72-.9-1.29-1.65-1.66-2.17a3.71,3.71,0,0,1-.53-.85,36.88,36.88,0,0,1,2.47,2.78c1.5,1.74,3.62,4.11,6.07,6.62s4.75,4.7,6.44,6.25A33.21,33.21,0,0,1,515.62,320.41Z" style="fill:#263238"></path><path d="M569.58,263.49a1.74,1.74,0,0,1,.08.53c0,.4.08.9.13,1.51.08,1.31.16,3.21.19,5.56.06,4.7-.08,11.19-.34,18.35s-.62,13.64-.89,18.32c-.15,2.29-.26,4.17-.35,5.55,0,.61-.09,1.11-.12,1.51a2.4,2.4,0,0,1-.07.52,1.76,1.76,0,0,1,0-.52c0-.41,0-.91,0-1.52,0-1.39.1-3.27.18-5.55.19-4.76.45-11.21.74-18.33s.46-13.64.49-18.33c0-2.35,0-4.24,0-5.56,0-.6,0-1.1,0-1.51A2.21,2.21,0,0,1,569.58,263.49Z" style="fill:#263238"></path><path d="M590.11,295s-4.25,41.31-5.6,44.68-29.44,36.82-29.44,36.82l-10.58-5.17s21.86-36,22.3-37.38,1.47-25.27,1.47-25.27Z" style="fill:#c78976"></path><g style="opacity:0.30000000000000004"><path d="M528.73,382.32a268.91,268.91,0,0,1-45.61-6.6c13.33-4,27.5.76,41.35,2.23,7.9.84,15.94.59,23.69,2.34s15.49,5.95,18.94,13.11c-12.34-8-23.73-10.86-38.37-11.08"></path></g><path d="M503.54,370.11s1,5.84,2.56,6.75S518.87,381,518.87,381l9.77-2.11.59-3.34s.46-3.94-.39-4.6-7.67-4.52-7.67-4.52l-4.42-1.95Z" style="fill:#c78976"></path><path d="M483.12,391.58s0,.09-.11.25-.21.42-.36.71c-.35.61-.78,1.56-1.49,2.68a67.43,67.43,0,0,1-6.93,8.89c-6.42,7-16.35,15.75-28.15,24.21l-1.5,1.06-.4.28v-.5a21.67,21.67,0,0,0-.72-5.72,18.47,18.47,0,0,0-.93-2.65,17.83,17.83,0,0,0-1.39-2.36,15.8,15.8,0,0,0-8.18-5.94l-.53-.16.47-.27L451,401.82l5.12-2.86,1.37-.74a2.74,2.74,0,0,1,.48-.24,2.29,2.29,0,0,1-.45.3l-1.32.8-5.06,3-18,10.41-.06-.43a16.14,16.14,0,0,1,8.48,6.1,17.38,17.38,0,0,1,1.44,2.44,18.31,18.31,0,0,1,1,2.72,22,22,0,0,1,.74,5.87l-.41-.22,1.5-1.05c11.78-8.44,21.71-17.1,28.18-24a71.26,71.26,0,0,0,7-8.75c.75-1.1,1.2-2,1.58-2.62.16-.28.3-.5.41-.68A1,1,0,0,1,483.12,391.58Z" style="fill:#263238"></path><path d="M488,437.69a9.52,9.52,0,0,1,.36-1.7c.28-1.17.66-2.72,1.12-4.6.92-3.88,2.07-9.28,3-15.29s1.57-11.49,1.91-15.47c.16-1.92.29-3.51.39-4.71a10.7,10.7,0,0,1,.19-1.73,11.67,11.67,0,0,1,0,1.74c0,1.12-.09,2.73-.22,4.73-.25,4-.8,9.5-1.76,15.53s-2.19,11.42-3.21,15.29c-.5,1.93-.94,3.49-1.27,4.56A12.35,12.35,0,0,1,488,437.69Z" style="fill:#263238"></path><path d="M619.5,440.05l-.26,0h-.77l-3,0a99.78,99.78,0,0,1-10.86-.76,42.46,42.46,0,0,1-15.37-4.83,27.8,27.8,0,0,1-7.44-6,27.41,27.41,0,0,1-5-9c-1.17-3.33-1.94-6.67-2.85-9.84a40.8,40.8,0,0,0-3.39-8.82,29.64,29.64,0,0,0-11.1-11.27,30.39,30.39,0,0,0-10.09-3.73,28.69,28.69,0,0,0-2.93-.35l-.77-.07-.26,0h1a26.76,26.76,0,0,1,3,.26,30.31,30.31,0,0,1,21.58,15,41.26,41.26,0,0,1,3.46,8.91c.92,3.18,1.7,6.52,2.85,9.81a26.89,26.89,0,0,0,4.85,8.82,27.52,27.52,0,0,0,7.29,5.93,43.07,43.07,0,0,0,15.18,4.88c4.54.64,8.26.78,10.82.92l3,.14.77,0Z" style="fill:#263238"></path><path d="M496.17,282.48a13.64,13.64,0,0,1-1.39-2.82c-.76-1.79-1.66-4.31-2.59-7.11s-1.68-5.21-2.33-7.2a25.19,25.19,0,0,1-.9-3,14.63,14.63,0,0,1,1.25,2.88c.68,1.82,1.54,4.35,2.47,7.15s1.78,5.34,2.44,7.15S496.24,282.44,496.17,282.48Z" style="fill:#263238"></path><path d="M524.46,380.34s7.73-5.52,8.65-5.71,9.78-.78,9.78-.78l4.81-7.68,14.06,2.28s-9.87,15.85-11,16.4-10.82.46-11,.55-5.73,3.41-6.47,3.59-2-1-2-1-2.3,2.06-3.68,1l-.56-1.86s-1.1,3.1-2.57,2.15a6,6,0,0,1-2.12-2.7l4-4.42S524.18,382.64,524.46,380.34Z" style="fill:#c78976"></path><path d="M555.56,331.17a10.67,10.67,0,0,1-.84,1.53c-.57,1-1.46,2.35-2.6,4A88.33,88.33,0,0,1,542,348.78a87.19,87.19,0,0,1-12.13,10.07c-1.66,1.14-3,2-4,2.58a11,11,0,0,1-1.54.84,10.93,10.93,0,0,1,1.43-1c.95-.61,2.29-1.53,3.92-2.71a97.5,97.5,0,0,0,22.18-22.05c1.18-1.63,2.11-3,2.73-3.91A11.17,11.17,0,0,1,555.56,331.17Z" style="fill:#263238"></path><path d="M642,418.59s.06-.16.22-.43L643,417c.32-.5.7-1.1,1.1-1.84s.91-1.54,1.35-2.49,1-2,1.46-3.11,1-2.36,1.45-3.66a54.52,54.52,0,0,0,3-17.71c0-1.39,0-2.71-.13-3.94s-.2-2.37-.34-3.41-.3-2-.44-2.81-.28-1.52-.42-2.1-.21-1-.29-1.32a1.41,1.41,0,0,1-.06-.47s.07.14.17.44.23.79.38,1.31.35,1.26.51,2.09.39,1.75.52,2.8.32,2.2.4,3.44.14,2.57.18,4a51.69,51.69,0,0,1-3.08,17.87c-.5,1.3-1,2.55-1.5,3.68s-1,2.17-1.53,3.1-1,1.75-1.43,2.47a19.53,19.53,0,0,1-1.18,1.8l-.8,1.1A1.83,1.83,0,0,1,642,418.59Z" style="fill:#263238"></path><g style="opacity:0.30000000000000004"><path d="M494.76,396.7q-2.72,18.58-5.42,37.18l-.78,1.88A48.11,48.11,0,0,0,494.76,396.7Z"></path></g><g style="opacity:0.30000000000000004"><path d="M532.11,363.82a230.78,230.78,0,0,0,33.59-36A56.32,56.32,0,0,1,532.33,364"></path></g><path d="M451.35,425.54c-.09,0-.15-1.2-.54-3.08a25.07,25.07,0,0,0-2.6-7,25.47,25.47,0,0,0-4.57-5.91c-1.4-1.33-2.39-2-2.33-2.09a2.78,2.78,0,0,1,.74.41,16.35,16.35,0,0,1,1.84,1.41,22.19,22.19,0,0,1,7.28,13.11,13.61,13.61,0,0,1,.22,2.3A2.47,2.47,0,0,1,451.35,425.54Z" style="fill:#fff"></path><path d="M485.5,436.43s-.14.1-.43.24l-1.27.57A47.76,47.76,0,0,1,479,439a53,53,0,0,1-7.45,1.59,53.82,53.82,0,0,1-9.33.43,41.88,41.88,0,0,1-9.26-1.35,11.56,11.56,0,0,1-6.35-4.16,7.58,7.58,0,0,1-1.48-4.91,4.21,4.21,0,0,1,.5-1.82,9.84,9.84,0,0,0-.3,1.83,7.58,7.58,0,0,0,1.57,4.68,11.38,11.38,0,0,0,6.2,3.92,43.58,43.58,0,0,0,9.14,1.29,55,55,0,0,0,9.24-.39,55.58,55.58,0,0,0,7.42-1.47c2.09-.55,3.73-1.15,4.88-1.54l1.3-.48A2.08,2.08,0,0,1,485.5,436.43Z" style="fill:#fff"></path><path d="M639.39,453a3.06,3.06,0,0,1-.39.08l-1.16.17a18.41,18.41,0,0,1-1.9.11,10.29,10.29,0,0,1-1.21-.05,11.63,11.63,0,0,1-1.38-.13,30.14,30.14,0,0,1-6.88-1.81c-2.6-1-5.46-2.3-8.64-3.71a45.52,45.52,0,0,0-10.75-3.55,44.32,44.32,0,0,0-13-.22A97.48,97.48,0,0,0,580,446.81c-4.83,1.3-9.81,2.81-15,4a61.44,61.44,0,0,1-15.44,1.77A54.61,54.61,0,0,1,535.31,450c-8.84-2.74-16.31-6.44-22.76-9a92.18,92.18,0,0,0-15.64-5.12c-1-.19-1.79-.4-2.53-.5l-1.88-.26-1.15-.18-.39-.07.39,0,1.17.12,1.88.21c.75.09,1.59.29,2.56.46a87.63,87.63,0,0,1,15.73,5c6.48,2.57,14,6.22,22.75,8.92a54.48,54.48,0,0,0,14.14,2.47,61.63,61.63,0,0,0,15.31-1.77c5.17-1.17,10.14-2.66,15-4a96.23,96.23,0,0,1,14.19-2.87,44.15,44.15,0,0,1,13.09.26A46.26,46.26,0,0,1,618,447.35c3.18,1.43,6,2.79,8.6,3.78a30.59,30.59,0,0,0,6.8,1.88A22.29,22.29,0,0,0,639.39,453Z" style="fill:#fff"></path><path d="M715.62,417.41a3.11,3.11,0,0,1-.67.56,7.08,7.08,0,0,1-2.32,1,12.44,12.44,0,0,1-4,.2c-1.56-.15-3.27-.56-5.18-.89a13.6,13.6,0,0,0-6.2.13,16.3,16.3,0,0,0-6.21,3.5,31.1,31.1,0,0,0-5.19,6.05c-1.58,2.29-3.08,4.78-4.83,7.18a40.59,40.59,0,0,1-5.9,6.39,43.06,43.06,0,0,1-6.62,4.65,41.83,41.83,0,0,1-12.84,4.63,37.14,37.14,0,0,1-9.19.55,24.61,24.61,0,0,1-2.49-.25,6.31,6.31,0,0,1-.87-.14,4.49,4.49,0,0,1,.88,0c.57,0,1.4.16,2.49.15a39.68,39.68,0,0,0,9.11-.71,42.42,42.42,0,0,0,12.68-4.68,44.84,44.84,0,0,0,6.52-4.63,40.4,40.4,0,0,0,5.81-6.31c1.74-2.37,3.23-4.85,4.83-7.16a31.26,31.26,0,0,1,5.29-6.12,16.49,16.49,0,0,1,6.41-3.55,13.84,13.84,0,0,1,6.39-.08c1.91.36,3.61.79,5.14,1a12.57,12.57,0,0,0,3.9-.11A7.72,7.72,0,0,0,715.62,417.41Z" style="fill:#fff"></path><path d="M496,287.35a15.66,15.66,0,0,1-3.15-.28c-1.93-.27-4.59-.73-7.5-1.35s-5.52-1.29-7.39-1.84a16.87,16.87,0,0,1-3-1,21.68,21.68,0,0,1,3.08.67c1.89.46,4.51,1.07,7.41,1.69s5.54,1.14,7.45,1.5A24.83,24.83,0,0,1,496,287.35Z" style="fill:#fff"></path><path d="M566.4,240.18a6.91,6.91,0,0,1-.72.49l-2.1,1.34-7.77,4.83-25.75,15.75-14.21,8.63a104.77,104.77,0,0,0-11.29,7.47,36.08,36.08,0,0,0-6.42,6.43c-.64.87-1.12,1.55-1.42,2a5.07,5.07,0,0,1-.49.72,7.7,7.7,0,0,1,.4-.78A23.69,23.69,0,0,1,498,285a34.69,34.69,0,0,1,6.36-6.59,98.2,98.2,0,0,1,11.27-7.6l14.19-8.66,25.83-15.63,7.86-4.69,2.15-1.25A4.27,4.27,0,0,1,566.4,240.18Z" style="fill:#fff"></path><path d="M598.42,262.35s-.07.16-.24.44l-.79,1.21c-.7,1-1.72,2.53-3,4.37C591.81,272,588.16,277,584,282.44s-8.1,10.2-11,13.62c-1.44,1.71-2.63,3.08-3.46,4l-1,1.06c-.23.24-.35.37-.36.35s.08-.15.28-.41l.89-1.14,3.34-4.11c2.82-3.48,6.68-8.31,10.85-13.71s7.86-10.36,10.51-14l3.14-4.27.87-1.15A1.92,1.92,0,0,1,598.42,262.35Z" style="fill:#fff"></path><g style="opacity:0.30000000000000004"><path d="M569.67,268.69l-1.3,38.64A43.49,43.49,0,0,0,569.67,268.69Z"></path></g><g style="opacity:0.30000000000000004"><path d="M499.68,303.75a27.77,27.77,0,0,0,9.9,16.18c5.06,4,12.41,7.65,18.86,7.42C516.61,322.58,506.64,313.54,499.68,303.75Z"></path></g></g><g id="freepik--character-1--inject-106"><path d="M228,252s6.76,3.45,9,14.27,14.12,104.49,14.12,104.49H228.7s-12.12-66.16-12.07-66S228,252,228,252Z" style="fill:#f5b094"></path><path d="M74.24,423.13a1.7,1.7,0,0,1-.45.16l-1.31.37a48.53,48.53,0,0,1-4.9,1.06,21.85,21.85,0,0,1-7.46,0,13.08,13.08,0,0,1-7.88-4.49,10.39,10.39,0,0,1-2-4.36,13.31,13.31,0,0,1-.1-4.44,17.45,17.45,0,0,1,2.72-6.94,28.55,28.55,0,0,1,3.08-4c.4-.44.72-.77.94-1a1.55,1.55,0,0,1,.36-.31,17.19,17.19,0,0,1-1.15,1.43,35.44,35.44,0,0,0-2.92,4,17.66,17.66,0,0,0-2.55,6.82,11.21,11.21,0,0,0,2,8.41,12.68,12.68,0,0,0,7.56,4.34,22.23,22.23,0,0,0,7.3.1c2.09-.28,3.75-.66,4.91-.9A12.55,12.55,0,0,1,74.24,423.13Z" style="fill:#fff"></path><path d="M168.21,234.25s-22.89,12.24-25.51,18.83-.74,33.06,1.07,42.46a99.31,99.31,0,0,1,1.95,14.8l72.43,12L228,252,198.13,237.1Z" style="fill:#f5b094"></path><path d="M155,241.85s20,1.39,30.69,3.27c7.93,1.39,28.46,0,28.46,0S192.56,297.66,185,306.61s-39.27,3.73-39.27,3.73-2.9-15.4-4.13-25.95c0,0,8.89,1.44,15.13-9.31s-6.86-29.35-6.86-29.35Z" style="fill:#455a64"></path><path d="M138.06,312.48s-14.51,7.25-21,23-9.75,46.45-9.75,46.45L46.54,412s-10.87,7.71-2.4,13.36,20.56,4,33.86,2.82,17.74,11.29,28.62,18.95,24.59,5.24,37.49,3.22,37.09,2.42,51.6,5.24,37.08-8.06,48.77-9.27,29.43-3.22,36.69-10.08-14.51-52-14.51-52-12.9-24.62-22.58-29.86-30.2-14.85-30.2-14.85,18-22,22.14-33.17c4.83-13.13-11.29-56-14.84-57.76l-7-3.5s-18.06,36.72-26.52,44S138.06,312.48,138.06,312.48Z" style="fill:#EE7E0C"></path><path d="M217.25,288.18a11.84,11.84,0,0,1-.83,1.51c-.56,1-1.43,2.33-2.54,4a95.78,95.78,0,0,1-21.39,22.44c-1.59,1.19-2.9,2.12-3.84,2.73a10.76,10.76,0,0,1-1.47.9,10.65,10.65,0,0,1,1.35-1.07c.9-.65,2.18-1.62,3.74-2.85a108.58,108.58,0,0,0,21.3-22.36c1.16-1.61,2.07-2.94,2.67-3.86A10.48,10.48,0,0,1,217.25,288.18Z" style="fill:#263238"></path><path d="M216.05,304.88a6.44,6.44,0,0,1-.88,1c-.58.61-1.46,1.46-2.56,2.5a109.19,109.19,0,0,1-19,14.07c-1.31.76-2.38,1.35-3.14,1.74a7.14,7.14,0,0,1-1.19.55,6.21,6.21,0,0,1,1.09-.73l3.05-1.87c2.56-1.6,6-3.89,9.74-6.63s6.89-5.42,9.16-7.41l2.67-2.37A6.84,6.84,0,0,1,216.05,304.88Z" style="fill:#263238"></path><g style="opacity:0.30000000000000004"><path d="M174.55,336.77c-4.62-.55-9.49-1.27-13.11-4.19-7.08-5.69-6.79-17.5-14.11-22.88l-1-.57c-1.08,5.05,1.85,13.58,3,19.57s3.84,12.19,9.08,15.33c4.53,2.72,10.12,2.68,15.39,2.56l30.32-.69c5.5-.12,11.9-.73,14.87-5.36Q196.75,339.46,174.55,336.77Z"></path></g><path d="M156.72,357.64a1.64,1.64,0,0,1-.28.15l-.84.39-3.25,1.49c-2.81,1.33-6.86,3.29-11.84,5.76-10,4.95-23.64,11.92-38.76,19.61s-28.83,14.62-38.83,19.49c-5,2.43-9.08,4.33-11.92,5.61-1.42.63-2.54,1.08-3.29,1.4l-.87.35a1.38,1.38,0,0,1-.3.1,1.35,1.35,0,0,1,.28-.15l.85-.4L50.92,410c2.81-1.33,6.86-3.28,11.83-5.75,10-4.95,23.64-11.92,38.77-19.62S130.35,370,140.35,365.1c5-2.43,9.07-4.34,11.91-5.61,1.42-.64,2.54-1.09,3.3-1.4l.86-.35A1.11,1.11,0,0,1,156.72,357.64Z" style="fill:#263238"></path><path d="M206.4,371.78a10.86,10.86,0,0,1-.21,1.49,18.72,18.72,0,0,1-1.34,4.14,24.3,24.3,0,0,1-3.72,5.77,34.19,34.19,0,0,1-6.87,6,77.55,77.55,0,0,1-9.64,5.34c-3.58,1.7-7.4,3.51-11.5,5.26-8.17,3.53-17.32,7-27.12,10.15a294.86,294.86,0,0,1-51.31,11.39c-6.69.82-12.11,1.3-15.87,1.55l-4.33.25-1.12.05H73l.38-.05,1.13-.1,4.31-.35c3.75-.31,9.17-.85,15.84-1.72a304.44,304.44,0,0,0,51.21-11.52c9.77-3.11,18.91-6.59,27.08-10.09,4.1-1.74,7.92-3.53,11.5-5.2a79.34,79.34,0,0,0,9.63-5.27,34,34,0,0,0,6.85-5.86,24.23,24.23,0,0,0,3.76-5.66,20,20,0,0,0,1.42-4.07C206.31,372.29,206.37,371.77,206.4,371.78Z" style="fill:#263238"></path><path d="M198,377.44a4.67,4.67,0,0,1-.69.48l-2,1.28c-.88.56-2,1.23-3.25,2s-2.73,1.61-4.38,2.48-3.43,1.86-5.39,2.83-4.08,2-6.31,3c-4.49,2-9.49,4.11-14.85,6s-10.55,3.46-15.31,4.72c-2.39.6-4.66,1.19-6.81,1.64s-4.13.88-6,1.22-3.49.61-4.95.85-2.72.42-3.76.54l-2.38.29a4.3,4.3,0,0,1-.83.06,7.11,7.11,0,0,1,.82-.16l2.37-.39c1-.15,2.28-.35,3.73-.63s3.12-.53,4.93-.92,3.82-.77,5.95-1.28,4.39-1.07,6.77-1.68c4.75-1.29,9.92-2.86,15.27-4.75s10.34-4,14.83-6c2.22-1,4.35-2,6.3-3s3.77-1.9,5.42-2.77,3.11-1.69,4.4-2.4,2.4-1.35,3.29-1.88l2.08-1.2A6.21,6.21,0,0,1,198,377.44Z" style="fill:#263238"></path><path d="M251.54,378.9a2.49,2.49,0,0,1,0,.45,9.64,9.64,0,0,1-.2,1.29,14.66,14.66,0,0,1-1.88,4.65,24.32,24.32,0,0,1-5.3,5.93,56.75,56.75,0,0,1-8.79,5.8,102,102,0,0,1-11.6,5.31c-4.28,1.67-8.93,3.23-13.82,4.82-9.8,3.19-20.57,6.71-32,10s-22.42,6.12-32.55,8.11A222.66,222.66,0,0,1,118.26,429l-2.85.21-2.71.11-5,.17c-3.09,0-5.76,0-7.94-.09l-5-.29-1.31-.08L93,429h.45l1.3,0,5,.19c2.18,0,4.85,0,7.94,0l5-.21,2.7-.13,2.84-.23a225.62,225.62,0,0,0,27.06-3.83c10.1-2,21.08-4.81,32.49-8.14s22.18-6.83,32-10c4.9-1.59,9.54-3.13,13.81-4.77a102,102,0,0,0,11.59-5.24A57.07,57.07,0,0,0,244,391a24.72,24.72,0,0,0,5.31-5.8,15.47,15.47,0,0,0,2-4.57C251.48,379.51,251.5,378.9,251.54,378.9Z" style="fill:#263238"></path><path d="M262.05,392.75s0,.12-.1.34-.17.55-.33,1a24.21,24.21,0,0,1-1.69,3.57,32.92,32.92,0,0,1-10,10.47c-5.06,3.55-11.9,6.38-19.58,9s-16.24,5.17-25.3,7.54-17.74,4.43-25.62,6.34-15,3.58-20.7,5.82a43.32,43.32,0,0,0-12.54,7.11c-.67.53-1.21,1.07-1.69,1.52a14.09,14.09,0,0,0-1.17,1.19l-.7.75c-.16.16-.24.25-.25.24a1.51,1.51,0,0,1,.21-.28q.25-.29.66-.78a14.4,14.4,0,0,1,1.14-1.23,20.32,20.32,0,0,1,1.67-1.56,42.46,42.46,0,0,1,12.53-7.3c5.72-2.3,12.85-4,20.73-5.95s16.55-4,25.6-6.37,17.61-4.87,25.28-7.5,14.47-5.34,19.52-8.81a33.28,33.28,0,0,0,10-10.27,27.54,27.54,0,0,0,1.78-3.51l.37-1A1.93,1.93,0,0,1,262.05,392.75Z" style="fill:#263238"></path><path d="M263.25,400.27a8.25,8.25,0,0,1-.41,1.54,16.89,16.89,0,0,1-.6,1.77c-.27.68-.54,1.47-.95,2.3s-.8,1.76-1.33,2.7-1.11,1.95-1.75,3a48.41,48.41,0,0,1-4.88,6.24,47.51,47.51,0,0,1-5.92,5.26c-1,.71-1.93,1.39-2.86,1.94s-1.8,1.07-2.61,1.5-1.58.78-2.24,1.09a18.19,18.19,0,0,1-1.73.72,9.94,9.94,0,0,1-1.51.51,9.1,9.1,0,0,1,1.43-.7c.47-.2,1.05-.45,1.69-.79s1.4-.68,2.18-1.15,1.67-.94,2.56-1.54,1.83-1.25,2.8-2a46.2,46.2,0,0,0,10.69-11.39c.64-1,1.27-2,1.77-2.92s1-1.83,1.38-2.65.71-1.59,1-2.25.51-1.25.68-1.73A11.18,11.18,0,0,1,263.25,400.27Z" style="fill:#263238"></path><path d="M245.37,302.92l25.38,65,5-2.09-25.1-64.95a2.84,2.84,0,0,0-3.69-1.62h0A2.84,2.84,0,0,0,245.37,302.92Z" style="fill:#455a64"></path><path d="M285.34,369.18c2,6.46-.72,13-6,14.62s-11.17-2.33-13.14-8.79.73-13,6-14.61S283.37,362.72,285.34,369.18Z" style="fill:#455a64"></path><path d="M217.43,321.19,239.66,326s.38-5.59,3.8-4.81a4.45,4.45,0,0,1,2-1.66,7.87,7.87,0,0,1,2.74,0,3.62,3.62,0,0,1,1.54.36c2.59,1.3,11.16,11.78,11.16,11.78l5.19,11.84S264.52,345.8,263,345s-4-7.13-4-7.13l1.43,9.85s-2.85,2.2-3.89,0l.26,3.25s-3.38.26-4.42-1.3a16.24,16.24,0,0,1-4.1-1.18c-2-.95-11.43-7.09-12.21-7.09H216.63Z" style="fill:#f5b094"></path><path d="M242.36,335.46a8.87,8.87,0,0,1,2.29,1.42,22.26,22.26,0,0,1,7.45,10.47,9.31,9.31,0,0,1,.6,2.63,25.56,25.56,0,0,1-.95-2.5,26.18,26.18,0,0,0-3-5.61,26.5,26.5,0,0,0-4.31-4.7C243.17,336.1,242.32,335.53,242.36,335.46Z" style="fill:#c78976"></path><path d="M256.56,347.17a32.17,32.17,0,0,1-1.1-3.09,46.9,46.9,0,0,0-3.29-7.16,46.42,46.42,0,0,0-4.48-6.48c-1.29-1.55-2.16-2.46-2.1-2.52a3.19,3.19,0,0,1,.69.56A23.5,23.5,0,0,1,248,330.2,37.27,37.27,0,0,1,255.81,344c.3,1,.51,1.77.62,2.33A3.53,3.53,0,0,1,256.56,347.17Z" style="fill:#c78976"></path><path d="M249.06,324.73a7.26,7.26,0,0,1,1.85,1.27,23.86,23.86,0,0,1,3.73,3.92,24.21,24.21,0,0,1,2.76,4.65,7.53,7.53,0,0,1,.72,2.12,53.72,53.72,0,0,0-3.9-6.46A55.24,55.24,0,0,0,249.06,324.73Z" style="fill:#c78976"></path><path d="M252.32,349.69s-.12,0-.37,0a3.74,3.74,0,0,1-.46,0l-.61-.12a18.09,18.09,0,0,1-3.71-1.37,94.41,94.41,0,0,1-11.31-6.58l.14,0-.72,0c-5.29-.23-10.07-.31-13.53-.18-1.72.06-3.12.14-4.09.19a8.63,8.63,0,0,1-1.51,0,8.4,8.4,0,0,1,1.49-.25c1-.12,2.36-.25,4.1-.36,3.47-.22,8.27-.2,13.56,0l.72,0h.07l.06,0a114.1,114.1,0,0,0,11.18,6.69,21.42,21.42,0,0,0,3.6,1.51l.59.16.43.06C252.19,349.65,252.32,349.67,252.32,349.69Z" style="fill:#c78976"></path><path d="M247.73,319.48a11.75,11.75,0,0,0-1.29-.06,2.44,2.44,0,0,0-1.32.55,3.29,3.29,0,0,0-.62.66l-.3.41a1.66,1.66,0,0,1-.18.24.41.41,0,0,1-.22.13.31.31,0,0,1-.32-.17l.12.09a3.41,3.41,0,0,0-2.61.95,3,3,0,0,0-.67,3.05l0,.19-.16.11c-.16.11-.34.22-.51.36a3.24,3.24,0,0,0-1.23,1.86,5.28,5.28,0,0,0,0,2.17,1.68,1.68,0,0,1-.07,1.2,1.76,1.76,0,0,1-1,.59,3.39,3.39,0,0,0-1.38,1,4,4,0,0,0-1,2.27c-.05.6,0,.94,0,.94a1.84,1.84,0,0,1-.18-1,4,4,0,0,1,.92-2.5,3.85,3.85,0,0,1,1.51-1.13c.31-.12.62-.22.73-.42a1.3,1.3,0,0,0,0-.87,5.69,5.69,0,0,1-.06-2.37,3.76,3.76,0,0,1,1.41-2.16,6.31,6.31,0,0,1,.56-.39l-.11.29a4.4,4.4,0,0,1-.08-1.94,2.93,2.93,0,0,1,.92-1.63,3.72,3.72,0,0,1,3.06-1l.12.1h0l-.06.06s0,0,0,0a.11.11,0,0,0,0-.06c0-.05,0-.05,0-.05l0,0a1,1,0,0,0,.15-.18l.32-.42a4.19,4.19,0,0,1,.71-.69,2.74,2.74,0,0,1,1.51-.52,3.16,3.16,0,0,1,1,.15C247.63,319.4,247.74,319.46,247.73,319.48Z" style="fill:#c78976"></path><path d="M239,326a5.17,5.17,0,0,1-1.19-.17l-3.19-.64c-2.7-.57-6.41-1.39-10.5-2.33s-7.79-1.81-10.46-2.47l-3.16-.81a4.68,4.68,0,0,1-1.14-.37,6,6,0,0,1,1.19.17l3.2.65c2.69.57,6.4,1.39,10.49,2.32s7.79,1.82,10.46,2.48l3.15.8A6.45,6.45,0,0,1,239,326Z" style="fill:#c78976"></path><g style="opacity:0.30000000000000004"><path d="M204.8,376.84c.14,8.56-5.36,16.41-12.35,21.35s-15.35,7.48-23.55,9.94l-41.77,12.51c-4.56,1.37-9.18,2.75-13.94,3s-9.74-.66-13.55-3.52c.22-.16,40.26-5.22,67-17.94S190.05,392,195,388.42A30.38,30.38,0,0,0,204.8,376.84Z"></path></g><g style="opacity:0.30000000000000004"><path d="M147.87,424.56C171.06,423,195,418,214.76,405.74Z"></path></g><g style="opacity:0.30000000000000004"><path d="M254.19,404.85c.53,2.3-6.43,8.7-9.93,11s-7.48,3.62-11.38,5.1c-13.07,5-25.5,11.6-38.76,16s-27.83,6.67-41.21,2.58a195.36,195.36,0,0,1,25.85-8.67c12.63-3.07,39.3-9.84,47.37-12.63C232.41,416.06,253.1,406.5,254.19,404.85Z"></path></g><g style="opacity:0.30000000000000004"><path d="M193.45,315.13l3.12.79c8.62-4.16,14.92-13,17.12-22.29A103.71,103.71,0,0,1,193.45,315.13Z"></path></g><path d="M149.59,318.93a6.35,6.35,0,0,1-1.28.39c-.83.2-2,.52-3.5.93a88.46,88.46,0,0,0-21.9,9.4c-1.31.79-2.37,1.44-3.09,1.9a6.11,6.11,0,0,1-1.16.66,6.71,6.71,0,0,1,1-.83c.69-.51,1.72-1.21,3-2a74.31,74.31,0,0,1,22-9.44c1.49-.37,2.71-.64,3.56-.78A7.67,7.67,0,0,1,149.59,318.93Z" style="fill:#fff"></path><path d="M222,251.43a4,4,0,0,1-.1.73c-.11.53-.24,1.22-.41,2.09-.1.45-.2,1-.31,1.5s-.3,1.13-.47,1.77c-.36,1.26-.7,2.72-1.27,4.27q-.41,1.17-.84,2.46c-.3.85-.69,1.7-1.05,2.61-.69,1.82-1.62,3.67-2.57,5.64a80.12,80.12,0,0,1-17.07,22.58c-1.64,1.44-3.18,2.85-4.74,4-.77.59-1.49,1.2-2.23,1.72l-2.13,1.47c-1.34,1-2.65,1.7-3.76,2.39-.57.33-1.09.66-1.58.93l-1.36.7-1.9,1a5.43,5.43,0,0,1-.67.3,3.45,3.45,0,0,1,.62-.4l1.85-1,1.34-.75c.48-.28,1-.62,1.54-1,1.1-.71,2.39-1.45,3.71-2.44l2.11-1.5c.72-.52,1.43-1.13,2.19-1.73,1.55-1.17,3.06-2.58,4.68-4A90.24,90.24,0,0,0,207,284.24a88.9,88.9,0,0,0,7.51-12c1-1.95,1.9-3.79,2.61-5.59.36-.89.76-1.74,1.06-2.59l.87-2.43c.59-1.53.95-3,1.34-4.23.18-.63.37-1.21.51-1.75s.24-1,.35-1.49c.21-.85.38-1.54.5-2.06A4.49,4.49,0,0,1,222,251.43Z" style="fill:#fff"></path><path d="M94,429.62A15.19,15.19,0,0,0,90.73,425a15.32,15.32,0,0,0-5-2.67,3.71,3.71,0,0,1,1.71.24,10,10,0,0,1,6.16,5.4A3.73,3.73,0,0,1,94,429.62Z" style="fill:#fff"></path><path d="M145.38,443.94a1.66,1.66,0,0,1-.5.12l-1.45.25c-1.26.19-3.09.46-5.36.72a58,58,0,0,1-17.84-.29,31.66,31.66,0,0,1-9.24-3.45,24.69,24.69,0,0,1-6.29-5,19.43,19.43,0,0,1-3-4.5,12.58,12.58,0,0,1-.57-1.36,1.63,1.63,0,0,1-.15-.49,24.61,24.61,0,0,0,4,6.1,25.13,25.13,0,0,0,6.26,4.86,31.86,31.86,0,0,0,9.1,3.36c6.82,1.35,13.18.83,17.7.43l5.38-.56,1.46-.14A2.45,2.45,0,0,1,145.38,443.94Z" style="fill:#fff"></path><path d="M277.65,410.47a1.56,1.56,0,0,1,.09.36,5.07,5.07,0,0,1,.17,1.09,10,10,0,0,1-.64,4.19c-1.24,3.51-4.31,8-9.14,12.55a31.48,31.48,0,0,1-9.31,5.44,78.47,78.47,0,0,1-11.92,3.34,115.43,115.43,0,0,0-13.18,3.41c-4.48,1.5-9,3.37-13.81,4.91a63.6,63.6,0,0,1-7.22,1.91l-3.62.55c-1.2.15-2.4.2-3.58.3a79.28,79.28,0,0,1-13.67-.61c-8.65-1.12-16.3-2.88-22.78-4a107,107,0,0,0-15.45-1.79c-1.84-.12-3.27,0-4.24-.05h-1.1l-.38,0,.38,0,1.1-.05c1,0,2.4-.15,4.24-.06a102.14,102.14,0,0,1,15.51,1.64c6.5,1.05,14.16,2.77,22.78,3.87a79.46,79.46,0,0,0,13.58.57c1.17-.1,2.36-.15,3.55-.3l3.58-.55a65.24,65.24,0,0,0,7.16-1.89c4.76-1.54,9.3-3.4,13.81-4.9A113.19,113.19,0,0,1,246.8,437a77.91,77.91,0,0,0,11.86-3.28,31.21,31.21,0,0,0,9.23-5.3c4.8-4.44,7.91-8.92,9.19-12.35a10.05,10.05,0,0,0,.72-4.11C277.76,411,277.61,410.47,277.65,410.47Z" style="fill:#fff"></path><path d="M151.5,328a10.51,10.51,0,0,1-1.54.37c-1,.2-2.44.53-4.2,1A82.12,82.12,0,0,0,120,340.83c-1.5,1-2.71,1.87-3.52,2.48a9,9,0,0,1-1.31.89,10.45,10.45,0,0,1,1.18-1.05c.78-.66,2-1.56,3.45-2.62A73.18,73.18,0,0,1,145.68,329c1.78-.4,3.23-.67,4.24-.81A9,9,0,0,1,151.5,328Z" style="fill:#fff"></path><path d="M228.1,263.61a3.5,3.5,0,0,1-.16.67c-.14.43-.3,1.08-.59,1.9a50.36,50.36,0,0,1-2.89,6.71,69.45,69.45,0,0,1-14.81,18.9,135.75,135.75,0,0,1-19.3,14.39c-2.6,1.64-4.74,2.93-6.22,3.8l-1.72,1a2.85,2.85,0,0,1-.61.31,3.79,3.79,0,0,1,.56-.4l1.66-1.08,6.13-3.94A146.87,146.87,0,0,0,209.3,291.4a72.19,72.19,0,0,0,14.84-18.68,56.31,56.31,0,0,0,3-6.61c.32-.8.51-1.44.68-1.86A2.67,2.67,0,0,1,228.1,263.61Z" style="fill:#fff"></path><path d="M150.9,245.12s-6.65,3.34-10.76,12.68c-7.56,17.18,13,75.31,17.83,79.75s72.26,4.81,73.07,2.39,1.89-14.82,1.89-14.82l-53-13.4S166.63,243.1,150.9,245.12Z" style="fill:#f5b094"></path><path d="M180.07,311.65a15,15,0,0,1-1.87.65,14.12,14.12,0,0,0-7.18,5.83,17,17,0,0,1-1,1.71,5.08,5.08,0,0,1,.7-1.89,12.35,12.35,0,0,1,7.38-6A5.2,5.2,0,0,1,180.07,311.65Z" style="fill:#c78976"></path><path d="M170.31,272.81c-.29.3-1.89-1.27-5.08-2.34a17.78,17.78,0,0,0-5.75-.88,18.87,18.87,0,0,0-6.93,1.48,31.64,31.64,0,0,0-10.63,7.76,7.88,7.88,0,0,0-1.87,3.28c-.21.87-.1,1.43-.3,1.49s-.61-.41-.71-1.54a7.11,7.11,0,0,1,1.41-4.34,21.77,21.77,0,0,1,1.89-2.37,27,27,0,0,1,2.46-2.43,24.45,24.45,0,0,1,6.76-4.25,18.81,18.81,0,0,1,8-1.48,16.31,16.31,0,0,1,6.41,1.58,11.76,11.76,0,0,1,3.57,2.6C170.2,272.15,170.43,272.7,170.31,272.81Z" style="fill:#EE7E0C"></path><path d="M170.69,275.05c-.15.37-2-.26-5-.38A25.39,25.39,0,0,0,154.31,277a48.38,48.38,0,0,0-10,6.47c-2.43,1.95-4,3.19-4.23,2.94s.8-1.93,3-4.29a32.73,32.73,0,0,1,10.18-7.5,21.63,21.63,0,0,1,12.64-1.78C169.17,273.47,170.84,274.78,170.69,275.05Z" style="fill:#EE7E0C"></path><path d="M165.1,197.53c-3-5.25-9.66-8.3-15.55-6.8s-10.31,7.67-9.44,13.68a14,14,0,0,0,5.3,8.71,12.62,12.62,0,0,0,8.87,2.9c4.21-.43,7.82-3.62,9.54-7.49a21.74,21.74,0,0,0,1.07-12.48" style="fill:#263238"></path><path d="M158.73,193.07a27.59,27.59,0,0,0-4.06.59A15,15,0,0,0,143.27,208a28.94,28.94,0,0,0,.33,4.08,4.28,4.28,0,0,1-.34-1.06,13.29,13.29,0,0,1-.36-3,14.78,14.78,0,0,1,11.69-14.64,13.85,13.85,0,0,1,3-.33A4.29,4.29,0,0,1,158.73,193.07Z" style="fill:#e0e0e0"></path><path d="M160.71,183.3c.93-10.23,6.33-20.18,15-25.7s20.51-6.07,29.18-.56a30.49,30.49,0,0,1,11.76,15.24c2.28,6.12,1.29,11.19,1.24,17.72,0,3.38-.46,12.48-3.38,14.19l-45.57,8.17C163.1,203.91,159.79,193.53,160.71,183.3Z" style="fill:#263238"></path><path d="M162.32,175.46c1-6.08,7-12,11.59-16.06,5.29-4.66,6-4.45,13.07-4.62,7.41-.19,15.52-.16,21.31,4.48,3.21,2.58,5.29,6.29,7,10,3.87,8.68,3.27,18.6,2.09,28s-3.18,18.33-10.9,23.87l-32.44-5c-7.15-2.66-9.54-10.83-11.56-18.19S161.06,183,162.32,175.46Z" style="fill:#263238"></path><path d="M216.23,181.51c-.46-8.92-10-17.94-18.85-17.11l-28.88,5.14,0,4.79-.33,59.92a252.58,252.58,0,0,0,33.28,5.27l.25-12s11.42-1.75,13.95-16.58C217,203.54,216.73,191.42,216.23,181.51Z" style="fill:#f5b094"></path><path d="M212,193.32a1.92,1.92,0,0,1-1.86,1.9,1.84,1.84,0,0,1-2-1.74,1.92,1.92,0,0,1,1.86-1.91A1.83,1.83,0,0,1,212,193.32Z" style="fill:#263238"></path><path d="M213,187.78c-.24.25-1.67-.84-3.72-.85s-3.57,1-3.79.73.14-.56.8-1a5.23,5.23,0,0,1,3-.89,5,5,0,0,1,2.95,1C212.92,187.22,213.13,187.67,213,187.78Z" style="fill:#263238"></path><path d="M193.47,193.32a1.92,1.92,0,0,1-1.86,1.9,1.83,1.83,0,0,1-2-1.74,1.92,1.92,0,0,1,1.86-1.91A1.84,1.84,0,0,1,193.47,193.32Z" style="fill:#263238"></path><path d="M192.85,187.92c-.24.25-1.68-.84-3.73-.85s-3.56,1-3.78.73.13-.56.8-1a5.19,5.19,0,0,1,3-.89,5,5,0,0,1,3,1C192.75,187.36,193,187.81,192.85,187.92Z" style="fill:#263238"></path><path d="M200.1,203.22a14.19,14.19,0,0,1,3.34-.56c.53,0,1-.14,1.12-.5a2.8,2.8,0,0,0-.33-1.56c-.48-1.27-1-2.6-1.5-4-2.09-5.71-3.59-10.39-3.36-10.48s2.11,4.48,4.19,10.18c.5,1.41,1,2.75,1.44,4a3,3,0,0,1,.24,2.06,1.31,1.31,0,0,1-.87.76,3.78,3.78,0,0,1-.89.11A12.89,12.89,0,0,1,200.1,203.22Z" style="fill:#263238"></path><path d="M201.74,227.54A39.36,39.36,0,0,1,181.39,222s4.9,10.46,20.29,9.29Z" style="fill:#c78976"></path><path d="M199.88,207.6a4.22,4.22,0,0,0-3.76-1.61,3.9,3.9,0,0,0-2.67,1.39,2.44,2.44,0,0,0-.22,2.79,2.85,2.85,0,0,0,3.06.81,8.8,8.8,0,0,0,3-1.75,2.7,2.7,0,0,0,.67-.68.79.79,0,0,0,0-.87" style="fill:#c78976"></path><path d="M194.05,204.57c.34,0,.31,2.21,2.2,3.81s4.26,1.39,4.27,1.7c0,.14-.53.43-1.53.44a5.54,5.54,0,0,1-3.57-1.29,4.8,4.8,0,0,1-1.7-3.2C193.65,205.1,193.9,204.55,194.05,204.57Z" style="fill:#263238"></path><path d="M193.38,182.14c-.21.55-2.26.26-4.67.53s-4.36.89-4.67.38c-.14-.24.2-.76,1-1.29a8.18,8.18,0,0,1,7.12-.7C193,181.43,193.47,181.87,193.38,182.14Z" style="fill:#263238"></path><path d="M213,180.75c-.37.46-1.77,0-3.47-.08s-3.14.27-3.47-.22c-.14-.24.09-.7.73-1.13a5,5,0,0,1,5.59.24C213,180,213.19,180.52,213,180.75Z" style="fill:#263238"></path><path d="M206.25,160.26c5.47,3.71,9.25,9.81,11.09,16.5l-.9,5.5c-1.28-2.66-1.44-5.51-4.07-8.24a18.82,18.82,0,0,0-8.48-4.44c-9.9-2.52-13.24-6.12-17.61-12.58C192.69,155.39,200.77,156.56,206.25,160.26Z" style="fill:#263238"></path><path d="M163.5,174.78a27.24,27.24,0,0,1,22-19.21l.81,1.43c2.5,2.93,5.48,2,8,4.94.63.73.81,5.36,1,6.31a3.8,3.8,0,0,1-1.6,3.33c-2.38,1.95-5.72,2.07-8.8,2.16s-6.45.33-8.7,2.44c-2.79,2.63-2.73,7.1-1.79,10.82a46.21,46.21,0,0,1,.92,13.53c-.34,3.42-4.86-4.89-7.84-3.16-.83.48,1.41,13.9.54,13.49s-.77-5.24-1.05-6.14A105.21,105.21,0,0,1,163,190,35.59,35.59,0,0,1,163.5,174.78Z" style="fill:#263238"></path><path d="M171.94,200.6a4.44,4.44,0,0,0-6.57-3.64c-1.52.93-2.66,2.74-2.45,6.17.58,9.15,9.64,6.69,9.64,6.43S172.21,204.38,171.94,200.6Z" style="fill:#f5b094"></path><path d="M169.56,206.26s-.15.12-.41.26a1.61,1.61,0,0,1-1.19.11c-1-.3-1.91-1.78-2.06-3.42a5.26,5.26,0,0,1,.29-2.31,1.87,1.87,0,0,1,1.12-1.31.82.82,0,0,1,1,.38c.14.25.1.43.14.45s.19-.17.09-.54a1,1,0,0,0-.4-.55,1.16,1.16,0,0,0-.89-.18,2.25,2.25,0,0,0-1.57,1.53,5.47,5.47,0,0,0-.39,2.59c.19,1.84,1.24,3.5,2.59,3.79a1.66,1.66,0,0,0,1.44-.34C169.56,206.48,169.6,206.27,169.56,206.26Z" style="fill:#c78976"></path><path d="M195,166.14a3.32,3.32,0,0,1,.28,1.86,6.06,6.06,0,0,1-.51,2.18,4.2,4.2,0,0,1-2,2.15,28,28,0,0,1-7.45,1.64c-1.42.17-2.92.3-4.47.4s-3.12.34-4.73.65a23.32,23.32,0,0,0-8.51,3.29,16.85,16.85,0,0,0-5,5.45,13.12,13.12,0,0,0-1.69,4.73c-.15,1.19-.07,1.86-.13,1.86a1.75,1.75,0,0,1-.07-.48,7.11,7.11,0,0,1,0-1.4,12.62,12.62,0,0,1,1.57-4.89,16.7,16.7,0,0,1,5.1-5.67,23.31,23.31,0,0,1,8.68-3.4,45.94,45.94,0,0,1,4.8-.65c1.55-.09,3-.21,4.45-.37a28.65,28.65,0,0,0,7.34-1.5,3.83,3.83,0,0,0,1.93-1.94,6.25,6.25,0,0,0,.57-2.06,6.64,6.64,0,0,0,0-1.37C195.06,166.3,195,166.15,195,166.14Z" style="fill:#e0e0e0"></path><path d="M191.5,161.54s0,.13,0,.38a4.55,4.55,0,0,1-.28,1,7,7,0,0,1-2.47,3.06,11.24,11.24,0,0,1-5.53,1.87c-2.2.23-4.62,0-7.11.09a18,18,0,0,0-3.59.41,14.84,14.84,0,0,0-3.17,1.12,15.9,15.9,0,0,0-4.58,3.36,19.93,19.93,0,0,0-3,4.35s0-.13.1-.36a10.38,10.38,0,0,1,.42-1,13.9,13.9,0,0,1,2.21-3.25,15.49,15.49,0,0,1,7.9-4.73,17.92,17.92,0,0,1,3.7-.43c2.54-.05,4.93.16,7.07-.05a11.22,11.22,0,0,0,5.37-1.69,7.09,7.09,0,0,0,2.49-2.84C191.4,162.05,191.45,161.53,191.5,161.54Z" style="fill:#e0e0e0"></path><path d="M192.31,196.38a3.36,3.36,0,0,1-2.58.29,3.43,3.43,0,0,1-2.32-1.19c.08-.13,1.07.44,2.41.68S192.28,196.23,192.31,196.38Z" style="fill:#c78976"></path><path d="M192.93,203.3c0,.15-1,.21-1.9.95s-1.2,1.67-1.35,1.64-.09-.29,0-.7a3,3,0,0,1,1-1.35,3.07,3.07,0,0,1,1.54-.65C192.67,203.15,192.93,203.24,192.93,203.3Z" style="fill:#c78976"></path><path d="M213,194.84c.06,0,0,.29-.22.64a3,3,0,0,1-1.26,1,3,3,0,0,1-1.6.22c-.41-.07-.63-.22-.61-.28s1,0,2-.42S212.86,194.77,213,194.84Z" style="fill:#c78976"></path><path d="M204.11,176.45c0,.05-.43.5-1.35,1a11.17,11.17,0,0,1-8,1.12,3.78,3.78,0,0,1-1.57-.62,19.09,19.09,0,0,0,5.59.29A19.49,19.49,0,0,0,204.11,176.45Z" style="fill:#c78976"></path><path d="M171.14,224.91q-.84-8.32-1.66-16.64l-2.27,0q-.94,8.34-1.9,16.69a9.39,9.39,0,0,0,.1,3.81,2.82,2.82,0,0,0,5.56.06A9.3,9.3,0,0,0,171.14,224.91Z" style="fill:#EE7E0C"></path></g></svg>